<svg width="26" height="19" viewBox="0 0 26 19" fill="none" xmlns="http://www.w3.org/2000/svg">
<path d="M4.02002 15V4.42499H6.42002L9.88502 12.18H9.39002L12.84 4.42499H15.255V15H12.75V8.51999H13.395L10.395 15H8.83502L5.82002 8.51999H6.51002V15H4.02002Z" fill="black"/>
<path d="M12.6569 15V4.42499H17.8469C19.0669 4.42499 19.9869 4.72499 20.6069 5.32499C21.2269 5.91499 21.5369 6.71999 21.5369 7.73999C21.5369 8.74999 21.2269 9.55499 20.6069 10.155C19.9869 10.755 19.0669 11.055 17.8469 11.055H15.4319V15H12.6569ZM15.4319 8.92499H17.4869C17.9569 8.92499 18.3069 8.82499 18.5369 8.62499C18.7669 8.41499 18.8819 8.11999 18.8819 7.73999C18.8819 7.35999 18.7669 7.06499 18.5369 6.85499C18.3069 6.64499 17.9569 6.53999 17.4869 6.53999H15.4319V8.92499Z" fill="black"/>
<path fill-rule="evenodd" clip-rule="evenodd" d="M0.0200195 19V5.53633L0.0200026 4.51999L0.0200195 0.424988H19.255V0.520102C20.6838 0.720049 22.1582 1.26579 23.3764 2.43889C24.9316 3.92581 25.5369 5.85671 25.5369 7.73999C25.5369 9.63313 24.9204 11.547 23.3885 13.0294C22.2181 14.1621 20.8096 14.7131 19.4319 14.9334V19H0.0200195ZM19.255 10.8884C19.5968 10.7966 19.9008 10.667 20.1668 10.4995C20.1841 10.4886 20.2012 10.4776 20.2181 10.4664C20.3587 10.3736 20.4883 10.2698 20.6069 10.155C21.2269 9.55499 21.5369 8.74999 21.5369 7.73999C21.5369 6.71999 21.2269 5.91499 20.6069 5.32499C20.4883 5.21021 20.3587 5.10642 20.2181 5.0136C20.0245 4.88575 19.8101 4.77873 19.5749 4.69254C19.4722 4.65493 19.3656 4.62129 19.255 4.59161C19.1537 4.5644 19.049 4.54053 18.941 4.51999C18.6079 4.45665 18.2432 4.42499 17.8469 4.42499H12.6569V4.83671L9.63698 11.6249L6.42002 4.42499H4.02002V15H6.51002V10.003L8.83502 15H10.395L12.6569 10.1144V15H15.4319V11.055H17.8469C18.3718 11.055 18.8412 10.9994 19.255 10.8884ZM18.5625 6.87923C18.5541 6.87103 18.5456 6.86295 18.5369 6.85499C18.37 6.70265 18.14 6.60556 17.8469 6.56374C17.7359 6.5479 17.6159 6.53999 17.4869 6.53999H15.4319V8.92499H17.4869C17.5312 8.92499 17.5744 8.9241 17.6166 8.92232C17.6973 8.91892 17.774 8.91227 17.8469 8.90237C18.14 8.86254 18.37 8.77007 18.5369 8.62499C18.645 8.52625 18.7277 8.40873 18.785 8.27241C18.8496 8.1188 18.8819 7.94132 18.8819 7.73999C18.8819 7.54834 18.8526 7.37832 18.7941 7.22991C18.7911 7.22241 18.7881 7.21496 18.785 7.20756C18.7323 7.08224 18.6582 6.97279 18.5625 6.87923Z" fill="#FCDA97"/>
</svg>
