<svg width="328" height="53" viewBox="0 0 328 53" fill="none" xmlns="http://www.w3.org/2000/svg">
<path d="M0.688 52V1.24H8.824L27.472 43.216H25.24L43.888 1.24H51.952V52H43.528V14.344H46.12L29.056 52H23.512L6.448 14.344H9.112V52H0.688ZM76.5844 52.72C73.4164 52.72 70.6324 51.976 68.2324 50.488C65.8324 48.952 63.9604 46.768 62.6164 43.936C61.2724 41.104 60.6004 37.72 60.6004 33.784C60.6004 29.848 61.2724 26.488 62.6164 23.704C63.9604 20.872 65.8324 18.712 68.2324 17.224C70.6324 15.688 73.4164 14.92 76.5844 14.92C79.6564 14.92 82.3444 15.688 84.6484 17.224C87.0004 18.712 88.5604 20.728 89.3284 23.272H88.5364L89.3284 15.64H97.9684C97.8244 17.128 97.6804 18.64 97.5364 20.176C97.4404 21.712 97.3924 23.224 97.3924 24.712V52H88.4644L88.3924 44.512H89.2564C88.4884 47.008 86.9284 49 84.5764 50.488C82.2244 51.976 79.5604 52.72 76.5844 52.72ZM79.1044 45.808C81.9364 45.808 84.2164 44.824 85.9444 42.856C87.6724 40.84 88.5364 37.816 88.5364 33.784C88.5364 29.752 87.6724 26.752 85.9444 24.784C84.2164 22.816 81.9364 21.832 79.1044 21.832C76.2724 21.832 73.9924 22.816 72.2644 24.784C70.5364 26.752 69.6724 29.752 69.6724 33.784C69.6724 37.816 70.5124 40.84 72.1924 42.856C73.9204 44.824 76.2244 45.808 79.1044 45.808ZM107.121 52V24.928C107.121 23.392 107.073 21.832 106.977 20.248C106.929 18.664 106.809 17.128 106.617 15.64H115.329L116.337 25.576H114.897C115.377 23.176 116.169 21.184 117.273 19.6C118.425 18.016 119.817 16.84 121.449 16.072C123.081 15.304 124.857 14.92 126.777 14.92C127.641 14.92 128.337 14.968 128.865 15.064C129.393 15.112 129.921 15.232 130.449 15.424L130.377 23.344C129.465 22.96 128.673 22.72 128.001 22.624C127.377 22.528 126.585 22.48 125.625 22.48C123.561 22.48 121.809 22.912 120.369 23.776C118.977 24.64 117.921 25.84 117.201 27.376C116.529 28.912 116.193 30.664 116.193 32.632V52H107.121ZM135.459 52V15.64H144.459V52H135.459ZM134.955 8.8V0.0159955H144.963V8.8H134.955ZM168.272 52.72C165.104 52.72 162.32 51.976 159.92 50.488C157.52 48.952 155.648 46.768 154.304 43.936C152.96 41.104 152.288 37.72 152.288 33.784C152.288 29.848 152.96 26.488 154.304 23.704C155.648 20.872 157.52 18.712 159.92 17.224C162.32 15.688 165.104 14.92 168.272 14.92C171.344 14.92 174.032 15.688 176.336 17.224C178.688 18.712 180.248 20.728 181.016 23.272H180.224L181.016 15.64H189.656C189.512 17.128 189.368 18.64 189.224 20.176C189.128 21.712 189.08 23.224 189.08 24.712V52H180.152L180.08 44.512H180.944C180.176 47.008 178.616 49 176.264 50.488C173.912 51.976 171.248 52.72 168.272 52.72ZM170.792 45.808C173.624 45.808 175.904 44.824 177.632 42.856C179.36 40.84 180.224 37.816 180.224 33.784C180.224 29.752 179.36 26.752 177.632 24.784C175.904 22.816 173.624 21.832 170.792 21.832C167.96 21.832 165.68 22.816 163.952 24.784C162.224 26.752 161.36 29.752 161.36 33.784C161.36 37.816 162.2 40.84 163.88 42.856C165.608 44.824 167.912 45.808 170.792 45.808ZM198.88 52V24.712C198.88 23.224 198.832 21.712 198.736 20.176C198.64 18.64 198.496 17.128 198.304 15.64H207.016L207.736 22.84H206.872C208.024 20.296 209.728 18.352 211.984 17.008C214.24 15.616 216.856 14.92 219.832 14.92C224.104 14.92 227.32 16.12 229.48 18.52C231.64 20.92 232.72 24.664 232.72 29.752V52H223.72V30.184C223.72 27.256 223.144 25.168 221.992 23.92C220.888 22.624 219.208 21.976 216.952 21.976C214.168 21.976 211.96 22.84 210.328 24.568C208.696 26.296 207.88 28.6 207.88 31.48V52H198.88ZM256.303 52.72C253.135 52.72 250.351 51.976 247.951 50.488C245.551 48.952 243.679 46.768 242.335 43.936C240.991 41.104 240.319 37.72 240.319 33.784C240.319 29.848 240.991 26.488 242.335 23.704C243.679 20.872 245.551 18.712 247.951 17.224C250.351 15.688 253.135 14.92 256.303 14.92C259.375 14.92 262.063 15.688 264.367 17.224C266.719 18.712 268.279 20.728 269.047 23.272H268.255L269.047 15.64H277.687C277.543 17.128 277.399 18.64 277.255 20.176C277.159 21.712 277.111 23.224 277.111 24.712V52H268.183L268.111 44.512H268.975C268.207 47.008 266.647 49 264.295 50.488C261.943 51.976 259.279 52.72 256.303 52.72ZM258.823 45.808C261.655 45.808 263.935 44.824 265.663 42.856C267.391 40.84 268.255 37.816 268.255 33.784C268.255 29.752 267.391 26.752 265.663 24.784C263.935 22.816 261.655 21.832 258.823 21.832C255.991 21.832 253.711 22.816 251.983 24.784C250.255 26.752 249.391 29.752 249.391 33.784C249.391 37.816 250.231 40.84 251.911 42.856C253.639 44.824 255.943 45.808 258.823 45.808Z" fill="black"/>
<path d="M287.632 52V1.24H310.168C315.736 1.24 319.984 2.584 322.912 5.272C325.84 7.96 327.304 11.656 327.304 16.36C327.304 21.016 325.84 24.712 322.912 27.448C319.984 30.184 315.736 31.552 310.168 31.552H296.92V52H287.632ZM296.92 24.208H309.088C312.16 24.208 314.464 23.536 316 22.192C317.536 20.8 318.304 18.856 318.304 16.36C318.304 13.864 317.536 11.944 316 10.6C314.464 9.208 312.16 8.512 309.088 8.512H296.92V24.208Z" fill="#FCDA97"/>
</svg>
